<svg xmlns="http://www.w3.org/2000/svg" viewBox="0 0 800 600" width="100%" height="100%">
  <defs>
    <linearGradient id="eduGrad" x1="0%" y1="0%" x2="100%" y2="100%">
      <stop offset="0%" stop-color="#FFF8F0"/>
      <stop offset="100%" stop-color="#FFE8D6"/>
    </linearGradient>
    <linearGradient id="saffron" x1="0%" y1="0%" x2="100%" y2="0%">
      <stop offset="0%" stop-color="#E86A17"/>
      <stop offset="100%" stop-color="#F58220"/>
    </linearGradient>
  </defs>
  <rect width="800" height="600" fill="url(#eduGrad)"/>
  <rect x="40" y="40" width="720" height="520" rx="20" fill="none" stroke="#E86A17" stroke-width="2" stroke-dasharray="8 8" opacity="0.4"/>
  
  <!-- Decorative Mandala Circle -->
  <circle cx="400" cy="240" r="110" fill="none" stroke="#D4AF37" stroke-width="2" opacity="0.3"/>
  <circle cx="400" cy="240" r="90" fill="none" stroke="#800020" stroke-width="1.5" stroke-dasharray="6 6" opacity="0.4"/>
  
  <!-- Graduation / Education Icon Illustration -->
  <path d="M400 160 L540 220 L400 280 L260 220 Z" fill="url(#saffron)"/>
  <path d="M310 242 V300 C310 325 490 325 490 300 V242" fill="none" stroke="#800020" stroke-width="8" stroke-linecap="round"/>
  <path d="M510 235 V310" stroke="#D4AF37" stroke-width="6" stroke-linecap="round"/>
  <circle cx="510" cy="318" r="8" fill="#D4AF37"/>

  <!-- Books Illustration -->
  <rect x="280" y="380" width="240" height="24" rx="4" fill="#800020"/>
  <rect x="300" y="352" width="200" height="24" rx="4" fill="#E86A17"/>
  <rect x="320" y="324" width="160" height="24" rx="4" fill="#D4AF37"/>

  <text x="400" y="450" text-anchor="middle" font-family="'Playfair Display', serif" font-weight="bold" font-size="28" fill="#800020">Rural Education &amp; Literacy Support</text>
  <text x="400" y="485" text-anchor="middle" font-family="'Poppins', sans-serif" font-size="16" fill="#2C1E16" opacity="0.8">Vibhuthi Narayan Memorial Trust Community Learning Center</text>
</svg>
